<?xml version="1.0" encoding="UTF-8"?>
<svg version="1.1" xmlns="http://www.w3.org/2000/svg" width="614" height="406">
<path d="M0 0 C0.66 0 1.32 0 2 0 C1.34772505 3.52228472 -0.10402446 5.9804834 -2 9 C-2.73430783 10.26786963 -3.46334298 11.53880538 -4.1875 12.8125 C-4.785625 13.864375 -5.38375 14.91625 -6 16 C-6.66 16 -7.32 16 -8 16 C-8.12503906 16.56976563 -8.25007813 17.13953125 -8.37890625 17.7265625 C-10.13943592 24.17076544 -13.01912569 28.80962695 -18.8125 32.25 C-20.53682429 33.17574342 -22.2658048 34.09288251 -24 35 C-25.32093792 35.8198925 -26.63409195 36.65251658 -27.9375 37.5 C-32.82658527 40.57285881 -37.91600846 43.266746 -43 46 C-45.75159816 47.49839504 -48.50108577 49.00059378 -51.25 50.50390625 C-53.0789782 51.49893274 -54.91232649 52.48596937 -56.75 53.46484375 C-62.46894742 56.52740508 -67.94599239 59.83191399 -73.39453125 63.3515625 C-76.36786762 65.23274383 -79.40363073 66.94234541 -82.4921875 68.625 C-85.66007296 70.36190916 -88.80001248 72.14650706 -91.9375 73.9375 C-92.53643066 74.27837646 -93.13536133 74.61925293 -93.75244141 74.97045898 C-98.2378949 77.53418553 -102.64453918 80.2089861 -107.01171875 82.96875 C-109 84 -109 84 -112 84 C-112.33 84.99 -112.66 85.98 -113 87 C-114.8984375 88.17578125 -114.8984375 88.17578125 -117.375 89.3125 C-122.08467005 91.55009573 -126.65674153 93.95595992 -131.22265625 96.47265625 C-133.03706227 97.47045196 -134.85719661 98.45792017 -136.68359375 99.43359375 C-142.95992801 102.79493967 -149.02805052 106.43098673 -155.0703125 110.19140625 C-157.23673947 111.52881383 -159.40238717 112.82357945 -161.625 114.0625 C-165.61849268 116.35506061 -169.47944151 118.82560063 -173.3515625 121.31640625 C-175.8766531 122.92158921 -178.42747177 124.47227114 -181 126 C-176.42024584 129.71263159 -171.69067731 133.19752621 -166.9375 136.68359375 C-164.05384805 138.95753737 -161.55960132 141.37122026 -159 144 C-153.37106464 149.3092051 -147.74228871 154.44619776 -141.36328125 158.84375 C-140.68845703 159.41609375 -140.68845703 159.41609375 -140 160 C-140 160.66 -140 161.32 -140 162 C-139.443125 162.061875 -138.88625 162.12375 -138.3125 162.1875 C-135.70953008 163.102057 -134.54533815 164.40464985 -132.703125 166.3984375 C-129.51926112 169.39243793 -125.81968123 171.75073543 -122.23046875 174.23046875 C-121.49441406 174.81441406 -120.75835937 175.39835938 -120 176 C-120 176.66 -120 177.32 -120 178 C-119.443125 178.04125 -118.88625 178.0825 -118.3125 178.125 C-115.47873669 179.19723477 -114.42572118 180.85636058 -112.6015625 183.1953125 C-108.52630409 187.78743296 -103.23651332 191.31436828 -98.3515625 194.99609375 C-97.53429687 195.61613281 -96.71703125 196.23617187 -95.875 196.875 C-95.12992187 197.42929687 -94.38484375 197.98359375 -93.6171875 198.5546875 C-93.08351563 199.03164063 -92.54984375 199.50859375 -92 200 C-92 200.66 -92 201.32 -92 202 C-91.21302734 202.3403125 -91.21302734 202.3403125 -90.41015625 202.6875 C-87.1592952 204.45782303 -84.33657633 206.71726273 -81.4375 209 C-78.34192668 211.42111879 -75.27273406 213.8181773 -72 216 C-72 216.66 -72 217.32 -72 218 C-70.68 218.66 -69.36 219.32 -68 220 C-68 220.66 -68 221.32 -68 222 C-67.443125 222.061875 -66.88625 222.12375 -66.3125 222.1875 C-63.03658033 223.3384988 -61.42425397 225.52064935 -59 228 C-56.88879426 229.60404458 -54.74571432 231.1467177 -52.57421875 232.66796875 C-52.05472656 233.10753906 -51.53523438 233.54710937 -51 234 C-51 234.66 -51 235.32 -51 236 C-53.35515568 235.71507769 -55.70889434 235.42225086 -58.0625 235.125 C-58.71927734 235.04636719 -59.37605469 234.96773437 -60.05273438 234.88671875 C-64.52371926 234.31408029 -68.66077703 233.25320519 -73 232 C-74.27875 231.95875 -75.5575 231.9175 -76.875 231.875 C-81.67886576 231.34021264 -84.19794861 228.5722753 -87.578125 225.3203125 C-93.65305397 219.50013862 -100.40506611 214.39913818 -107.16015625 209.3984375 C-111.08392457 206.41604035 -114.79401907 203.24844504 -118.21875 199.703125 C-122.18115464 195.85202386 -126.53684935 192.56316334 -130.91210938 189.19726562 C-131.56630859 188.68486328 -132.22050781 188.17246094 -132.89453125 187.64453125 C-133.49112549 187.18409424 -134.08771973 186.72365723 -134.70239258 186.24926758 C-135.13060303 185.83700928 -135.55881348 185.42475098 -136 185 C-136 184.34 -136 183.68 -136 183 C-136.57234375 182.731875 -137.1446875 182.46375 -137.734375 182.1875 C-140.07884634 180.95867364 -142.12404938 179.57477824 -144.25 178 C-144.95640625 177.484375 -145.6628125 176.96875 -146.390625 176.4375 C-146.92171875 175.963125 -147.4528125 175.48875 -148 175 C-148 174.34 -148 173.68 -148 173 C-148.5775 172.896875 -149.155 172.79375 -149.75 172.6875 C-152.35661158 171.89103535 -153.9735311 170.80934723 -156 169 C-156 168.34 -156 167.68 -156 167 C-157.32 166.34 -158.64 165.68 -160 165 C-160 164.34 -160 163.68 -160 163 C-160.57234375 162.731875 -161.1446875 162.46375 -161.734375 162.1875 C-164.07884634 160.95867364 -166.12404938 159.57477824 -168.25 158 C-168.95640625 157.484375 -169.6628125 156.96875 -170.390625 156.4375 C-170.92171875 155.963125 -171.4528125 155.48875 -172 155 C-172 154.34 -172 153.68 -172 153 C-172.57234375 152.731875 -173.1446875 152.46375 -173.734375 152.1875 C-176.07884634 150.95867364 -178.12404938 149.57477824 -180.25 148 C-180.95640625 147.484375 -181.6628125 146.96875 -182.390625 146.4375 C-182.92171875 145.963125 -183.4528125 145.48875 -184 145 C-184 144.34 -184 143.68 -184 143 C-184.5775 142.731875 -185.155 142.46375 -185.75 142.1875 C-188.05550043 140.97070811 -190.02056192 139.69666121 -192 138 C-192 137.34 -192 136.68 -192 136 C-194.15424056 134.60264182 -194.15424056 134.60264182 -197 134 C-199.04316953 135.26618957 -201.03730784 136.61233387 -203 138 C-205.15520905 139.26965286 -207.32257365 140.51883837 -209.5 141.75 C-210.73700186 142.45178292 -211.97398036 143.15360702 -213.2109375 143.85546875 C-213.83838867 144.21044434 -214.46583984 144.56541992 -215.11230469 144.93115234 C-220.41867636 147.93571716 -225.70964542 150.96735153 -231 154 C-232.06605469 154.60972656 -233.13210937 155.21945313 -234.23046875 155.84765625 C-238.67867084 158.4128425 -243.04505902 160.98847712 -247.25 163.9375 C-253.20208889 167.99969206 -259.76524751 170.9501969 -266.21875 174.11865234 C-273.36253198 177.65333614 -280.0427308 181.88373307 -286.77636719 186.12963867 C-293.40616271 190.29373752 -300.1828649 194.15174741 -307 198 C-313.31685417 201.626787 -319.56624621 205.33777526 -325.75 209.1875 C-338.68586136 217.15041346 -338.68586136 217.15041346 -341.9453125 216.77734375 C-346.12636479 215.1955388 -349.27755066 212.51455563 -352 209 C-353.69855622 202.46911715 -349.15633771 194.99672177 -346.68359375 189.109375 C-344.64801615 184.22587245 -342.91498598 179.24668138 -341.1809082 174.25 C-340.83999146 173.26773438 -340.83999146 173.26773438 -340.4921875 172.265625 C-340.13954834 171.24855469 -340.13954834 171.24855469 -339.77978516 170.2109375 C-338.90149741 167.720714 -337.9900095 165.24373695 -337.078125 162.765625 C-334.48276185 155.65514218 -332.15766171 148.45765509 -329.82421875 141.2578125 C-329.48777344 140.23429688 -329.15132812 139.21078125 -328.8046875 138.15625 C-328.50546387 137.23650391 -328.20624023 136.31675781 -327.89794922 135.36914062 C-327 133 -327 133 -325 130 C-324.48799817 128.65849704 -324.02147025 127.29916719 -323.58984375 125.9296875 C-321.14679863 118.34443882 -318.46810288 110.84116087 -315.81933594 103.32568359 C-315.11943887 101.33902702 -314.42267753 99.35126619 -313.7265625 97.36328125 C-313.38367188 96.39777344 -313.04078125 95.43226563 -312.6875 94.4375 C-312.26017578 93.22900391 -312.26017578 93.22900391 -311.82421875 91.99609375 C-311 90 -311 90 -309 87 C-308.48530371 85.65334529 -308.01612396 84.28881873 -307.58203125 82.9140625 C-307.32502441 82.11645508 -307.06801758 81.31884766 -306.80322266 80.49707031 C-306.53815918 79.67303711 -306.2730957 78.84900391 -306 78 C-294.76318253 44.76318253 -294.76318253 44.76318253 -291 41 C-285.72 42.98 -280.44 44.96 -275 47 C-275 47.66 -275 48.32 -275 49 C-274.4225 49.103125 -273.845 49.20625 -273.25 49.3125 C-270.64338842 50.10896465 -269.0264689 51.19065277 -267 53 C-267 53.66 -267 54.32 -267 55 C-266.42765625 55.268125 -265.8553125 55.53625 -265.265625 55.8125 C-262.92115366 57.04132636 -260.87595062 58.42522176 -258.75 60 C-258.04359375 60.515625 -257.3371875 61.03125 -256.609375 61.5625 C-256.07828125 62.036875 -255.5471875 62.51125 -255 63 C-255 63.66 -255 64.32 -255 65 C-254.15308594 65.36738281 -254.15308594 65.36738281 -253.2890625 65.7421875 C-250.58707928 67.226895 -248.62705 69.01966335 -246.375 71.125 C-242.03313652 75.12442484 -237.53102976 78.79560042 -232.8359375 82.37109375 C-232.23007813 82.90863281 -231.62421875 83.44617188 -231 84 C-231 84.66 -231 85.32 -231 86 C-230.17822266 86.37511719 -230.17822266 86.37511719 -229.33984375 86.7578125 C-226.54933448 88.23925148 -224.10796176 90.00385613 -221.5625 91.875 C-220.63566406 92.55304688 -219.70882812 93.23109375 -218.75390625 93.9296875 C-217.84511719 94.61289063 -216.93632812 95.29609375 -216 96 C-214.59041016 97.05574219 -214.59041016 97.05574219 -213.15234375 98.1328125 C-212.08693359 99.05707031 -212.08693359 99.05707031 -211 100 C-211 100.66 -211 101.32 -211 102 C-210.44183594 102.23332031 -209.88367188 102.46664062 -209.30859375 102.70703125 C-205.47874007 104.85200852 -202.63219571 108.12132636 -199.53515625 111.19921875 C-197.18057658 113.24878083 -197.18057658 113.24878083 -194.515625 112.95703125 C-191.68804691 111.88132219 -189.2708122 110.5784878 -186.6875 109 C-185.13095703 108.06607422 -185.13095703 108.06607422 -183.54296875 107.11328125 C-182.98013184 106.77506348 -182.41729492 106.4368457 -181.83740234 106.08837891 C-178.42316953 104.06596994 -174.96022207 102.12980378 -171.5 100.1875 C-170.81768311 99.80271484 -170.13536621 99.41792969 -169.43237305 99.02148438 C-164.3446868 96.16230971 -164.3446868 96.16230971 -161.71875 94.92578125 C-159.92889582 94.07459716 -159.92889582 94.07459716 -158.59765625 92.54296875 C-156.45072112 90.46952285 -154.1581656 89.51886704 -151.4375 88.3125 C-150.46683594 87.87550781 -149.49617187 87.43851562 -148.49609375 86.98828125 C-146 86 -146 86 -144 86 C-144 85.34 -144 84.68 -144 84 C-142.9275 83.484375 -141.855 82.96875 -140.75 82.4375 C-133.61142353 78.86821176 -126.74658301 74.75878053 -120 70.5 C-107.02980788 62.31389514 -93.51722199 54.87337123 -79.9375 47.75 C-75.64077066 45.49187686 -71.58211472 43.15838184 -67.72265625 40.20703125 C-64.59875516 38.01817539 -61.18548027 36.32813477 -57.82421875 34.53515625 C-55.16775472 33.09118618 -52.58210713 31.57225283 -50 30 C-45.58867904 27.31943654 -41.09172528 24.83352478 -36.54296875 22.39453125 C-34.76738216 21.42082248 -33.02122735 20.39233941 -31.30078125 19.32421875 C-29 18 -29 18 -27 18 C-27 17.34 -27 16.68 -27 16 C-24.8671875 14.5546875 -24.8671875 14.5546875 -21.875 12.875 C-20.79347656 12.26140625 -19.71195312 11.6478125 -18.59765625 11.015625 C-18.0164502 10.69013672 -17.43524414 10.36464844 -16.83642578 10.02929688 C-14.28324467 8.59826635 -11.74005436 7.14996068 -9.19775391 5.69970703 C-7.95269898 4.98995156 -6.70630102 4.28254627 -5.45849609 3.57763672 C-2.55526301 2.03033157 -2.55526301 2.03033157 0 0 Z M-281 63 C-284.64274381 71.59987972 -287.8208508 80.16422061 -290.26245117 89.18725586 C-291.43052481 93.4194288 -292.97003571 97.1156359 -295 101 C-295.51572578 102.38274304 -295.9987061 103.77845376 -296.4375 105.1875 C-297.50141798 108.52739907 -298.64519657 111.8261527 -299.8515625 115.1171875 C-301.23278577 118.89619666 -302.60572583 122.67782682 -303.96484375 126.46484375 C-307.12543895 135.24427485 -310.30807696 143.96884625 -313.984375 152.546875 C-315.2341293 155.5655123 -316.26100471 158.62601185 -317.26171875 161.734375 C-319.79312939 169.50272511 -322.80069531 177.01621242 -326.14453125 184.46875 C-327.30956718 187.0768376 -327.30956718 187.0768376 -326 190 C-325.26998779 189.57702637 -324.53997559 189.15405273 -323.7878418 188.71826172 C-321.02447918 187.11804082 -318.26039497 185.51907502 -315.49584961 183.92089844 C-314.30969616 183.23486072 -313.1238142 182.54835332 -311.93823242 181.86132812 C-305.14444094 177.92490002 -298.33029263 174.04501182 -291.41333008 170.32861328 C-288.90237077 168.94625207 -286.44908987 167.48886728 -284 166 C-280.75241929 164.0271706 -277.47847159 162.16142879 -274.125 160.375 C-268.92569013 157.56809985 -263.86960388 154.55255293 -258.8125 151.5 C-250.8989737 146.72979642 -242.96557343 141.9953683 -235 137.3125 C-233.96721924 136.70019531 -232.93443848 136.08789062 -231.87036133 135.45703125 C-230.90251709 134.88984375 -229.93467285 134.32265625 -228.9375 133.73828125 C-227.65166016 132.98091675 -227.65166016 132.98091675 -226.33984375 132.20825195 C-224.19749326 131.10198186 -222.3555382 130.45798354 -220 130 C-220 129.34 -220 128.68 -220 128 C-219.0925 127.7525 -218.185 127.505 -217.25 127.25 C-213.89648511 125.96018658 -212.32291764 124.68028958 -210 122 C-210.763125 121.401875 -211.52625 120.80375 -212.3125 120.1875 C-215 118 -215 118 -216.6875 116.25 C-217.93929598 114.77011494 -217.93929598 114.77011494 -220 115 C-220.33 114.01 -220.66 113.02 -221 112 C-223.04405673 110.08109756 -223.04405673 110.08109756 -225.5625 108.1875 C-226.46484375 107.48367187 -227.3671875 106.77984375 -228.296875 106.0546875 C-231.21004366 103.84034254 -234.14085778 101.6537442 -237.11328125 99.51953125 C-239.59272595 97.52262858 -241.74940251 95.25059749 -244 93 C-249.52452341 88.25171754 -255.21845989 83.7163414 -261.1484375 79.484375 C-263 78 -263 78 -265.3359375 75.66015625 C-268.18100266 72.81926274 -271.15515576 70.24757336 -274.25 67.6875 C-274.79140625 67.23310547 -275.3328125 66.77871094 -275.890625 66.31054688 C-278.16629031 64.01114764 -278.16629031 64.01114764 -281 63 Z " fill="#FDDC5F" transform="translate(443,92)"/>
<path d="M0 0 C2.64597961 2.15529325 3.3410937 3.69879791 4 7 C4.13017416 8.47771157 4.2218528 9.95916175 4.28125 11.44140625 C4.33732422 12.68760742 4.33732422 12.68760742 4.39453125 13.95898438 C4.46500173 15.69856132 4.53531353 17.43814469 4.60546875 19.17773438 C4.66154297 20.42200195 4.66154297 20.42200195 4.71875 21.69140625 C4.74904297 22.44623291 4.77933594 23.20105957 4.81054688 23.97875977 C4.94218941 26.20375929 4.94218941 26.20375929 6 29 C2.04 29 -1.92 29 -6 29 C-6 28.34 -6 27.68 -6 27 C-6.53882813 27.32355469 -7.07765625 27.64710938 -7.6328125 27.98046875 C-13.22766028 30.39013091 -20.11126142 29.7042754 -25.6875 27.625 C-28 26 -28 26 -29 24 C-29.41272288 20.61567241 -29.49649408 17.37725097 -29 14 C-26.40628543 11.12588385 -24.64451394 10.21483798 -21 9 C-19.16859259 8.90622311 -17.33380013 8.87007043 -15.5 8.875 C-14.06140625 8.87113281 -14.06140625 8.87113281 -12.59375 8.8671875 C-10 9 -10 9 -7 10 C-7 9.01 -7 8.02 -7 7 C-14.26187082 5.46383502 -19.94985735 6.92020792 -27 9 C-27.33 6.03 -27.66 3.06 -28 0 C-18.06421203 -3.46597255 -9.72430205 -4.52683027 0 0 Z M-17 16 C-17.59070014 17.94603274 -17.59070014 17.94603274 -18 20 C-16.10114904 21.89885096 -13.42752097 21.12367506 -10.91015625 21.1328125 C-8.91365633 21.11686861 -8.91365633 21.11686861 -7 20 C-7.66 18.68 -8.32 17.36 -9 16 C-11.64 16 -14.28 16 -17 16 Z " fill="#141414" transform="translate(340,208)"/>
<path d="M0 0 C2.87547548 2.33674471 3.03303607 3.13214427 4 7 C4 9.97 4 12.94 4 16 C-6.395 16.495 -6.395 16.495 -17 17 C-14.45452346 20.11594817 -14.45452346 20.11594817 -11.984375 20.36328125 C-6.96851671 20.24928447 -2.75589194 19.61902704 2 18 C3 19 3 19 3.09765625 20.84765625 C3.06510417 22.8984375 3.03255208 24.94921875 3 27 C-1.27391633 29.08706809 -5.2023565 29.33433478 -9.875 29.3125 C-10.55691406 29.32861328 -11.23882812 29.34472656 -11.94140625 29.36132812 C-16.99678263 29.36614277 -20.51479549 28.35975312 -25 26 C-28.57006746 21.86623768 -29.81239397 18.44057488 -30 13 C-29.34882901 7.01155253 -27.39916891 3.10589098 -23 -1 C-15.2359569 -4.22281034 -7.37667912 -3.97457434 0 0 Z M-17 7 C-17 7.99 -17 8.98 -17 10 C-13.37 10 -9.74 10 -6 10 C-6.75150023 6.72226496 -6.75150023 6.72226496 -10 5 C-14.04622502 4.63019987 -14.04622502 4.63019987 -17 7 Z " fill="#161616" transform="translate(448,208)"/>
<path d="M0 0 C0.33 2.97 0.66 5.94 1 9 C0.2265625 8.855625 -0.546875 8.71125 -1.34375 8.5625 C-7.32823915 7.49595738 -12.92337435 6.76628363 -19 7 C-15.08925799 9.60716134 -11.60793721 9.74609332 -7.0078125 10.33984375 C-3.7838865 11.0474327 -1.67480182 12.08737289 1 14 C2.73156388 17.46312775 2.61171713 21.22214254 2 25 C-0.87338877 28.10636623 -3.6116105 29.81869204 -7.91357422 30.14526367 C-10.234197 30.16987233 -12.55423686 30.1856552 -14.875 30.1875 C-15.67808594 30.19974609 -16.48117187 30.21199219 -17.30859375 30.22460938 C-25.46466766 30.24476442 -25.46466766 30.24476442 -29 28 C-29.92578125 25.8359375 -29.92578125 25.8359375 -30.3125 23.375 C-30.52326172 22.14910156 -30.52326172 22.14910156 -30.73828125 20.8984375 C-30.82464844 20.27195313 -30.91101563 19.64546875 -31 19 C-27.53058454 19.45822468 -24.32604951 19.89131683 -21 21 C-19.10529184 21.0685495 -17.2083166 21.08480372 -15.3125 21.0625 C-14.31863281 21.05347656 -13.32476562 21.04445312 -12.30078125 21.03515625 C-11.54152344 21.02355469 -10.78226562 21.01195312 -10 21 C-13.27228127 18.81847915 -15.03414008 18.59433201 -18.875 18.125 C-26.99070896 16.8394403 -26.99070896 16.8394403 -30 13 C-31.35485788 8.6963338 -31.37111382 6.78676129 -29.4375 2.6875 C-22.18241887 -5.31169201 -9.39244829 -2.17795902 0 0 Z " fill="#191919" transform="translate(397,207)"/>
<path d="M0 0 C3.96 0 7.92 0 12 0 C12.33 15.18 12.66 30.36 13 46 C8.71 46 4.42 46 0 46 C0 30.82 0 15.64 0 0 Z " fill="#161616" transform="translate(403,191)"/>
<path d="M0 0 C3.96 0 7.92 0 12 0 C12.33 10.23 12.66 20.46 13 31 C8.71 31 4.42 31 0 31 C0 20.77 0 10.54 0 0 Z " fill="#242323" transform="translate(350,206)"/>
<path d="M0 0 C1.38550197 2.77100394 1.1877467 4.9334706 1 8 C-1 11 -1 11 -3.875 11.8125 C-7.09732959 12.00583978 -8.39813344 11.83094313 -11 10 C-12.38550197 7.22899606 -12.1877467 5.0665294 -12 2 C-10 -1 -10 -1 -8.25 -1.8125 C-5.11013607 -2.07415533 -2.87676479 -1.21463402 0 0 Z " fill="#FBDB60" transform="translate(361,192)"/>
<path d="M0 0 C0.33 0 0.66 0 1 0 C1 2.64 1 5.28 1 8 C0.01 8 -0.98 8 -2 8 C-2.12375 8.94875 -2.2475 9.8975 -2.375 10.875 C-2.83135594 13.98709396 -3.32444381 17.09062144 -3.875 20.1875 C-4.01679688 21.00605469 -4.15859375 21.82460937 -4.3046875 22.66796875 C-5 25 -5 25 -6.5078125 26.98828125 C-8.27581934 29.37185069 -8.5733063 31.08425968 -9 34 C-9.55729318 37.80817008 -10.35334427 40.14161181 -13 43 C-13.66 43 -14.32 43 -15 43 C-14.24670034 36.03197815 -11.88981241 28.83471861 -8 23 C-7.52049351 21.74441363 -7.08741331 20.47065742 -6.6875 19.1875 C-5.31254625 14.90671614 -3.83182971 10.66880913 -2.3125 6.4375 C-1.87550781 5.21933594 -1.43851563 4.00117188 -0.98828125 2.74609375 C-0.66214844 1.83988281 -0.33601562 0.93367187 0 0 Z " fill="#F9E38D" transform="translate(142,156)"/>
<path d="M0 0 C-0.65227495 3.52228472 -2.10402446 5.9804834 -4 9 C-4.73430783 10.26786963 -5.46334298 11.53880538 -6.1875 12.8125 C-6.785625 13.864375 -7.38375 14.91625 -8 16 C-8.66 16 -9.32 16 -10 16 C-10 14.68 -10 13.36 -10 12 C-10.66 11.67 -11.32 11.34 -12 11 C-11.67 10.34 -11.34 9.68 -11 9 C-12.98 9.33 -14.96 9.66 -17 10 C-15.75193533 7.50387065 -14.81007774 7.2762644 -12.3125 6.125 C-9.5955561 4.82750076 -7.09603368 3.4705716 -4.625 1.75 C-2 0 -2 0 0 0 Z " fill="#FAE077" transform="translate(445,92)"/>
<path d="M0 0 C4.82297422 2.60440608 8.97166683 5.26642292 13 9 C13 9.66 13 10.32 13 11 C10.64484432 10.71507769 8.29110566 10.42225086 5.9375 10.125 C5.28072266 10.04636719 4.62394531 9.96773438 3.94726562 9.88671875 C-0.5335192 9.31282513 -4.68351175 8.33592224 -9 7 C-9 6.67 -9 6.34 -9 6 C-5.7 6 -2.4 6 1 6 C0.67 4.02 0.34 2.04 0 0 Z " fill="#FADA6F" transform="translate(379,317)"/>
<path d="M0 0 C5.61 1.98 11.22 3.96 17 6 C16.67 6.66 16.34 7.32 16 8 C13.36 7.67 10.72 7.34 8 7 C8 6.01 8 5.02 8 4 C5.36 4 2.72 4 0 4 C-1.3484649 7.4554413 -2.00091911 9.94577273 -1.9375 13.6875 C-2 17 -2 17 -3.4375 18.75 C-3.953125 19.1625 -4.46875 19.575 -5 20 C-5.33 20.99 -5.66 21.98 -6 23 C-6.66 23 -7.32 23 -8 23 C-7.38174263 18.02302821 -5.91038555 13.83672758 -4 9.25 C-3.59007812 8.24259766 -3.59007812 8.24259766 -3.171875 7.21484375 C-2.17493567 4.77625195 -1.17861835 2.3572367 0 0 Z " fill="#F8E38B" transform="translate(151,133)"/>
<path d="M0 0 C0 0.66 0 1.32 0 2 C-0.99 2 -1.98 2 -3 2 C-3.0825 2.598125 -3.165 3.19625 -3.25 3.8125 C-4.23112848 6.67412475 -5.39811427 7.51320815 -8 9 C-9.32 9 -10.64 9 -12 9 C-12 9.66 -12 10.32 -12 11 C-12.928125 11.268125 -13.85625 11.53625 -14.8125 11.8125 C-17.76240366 12.91148371 -19.05615186 13.62418561 -21 16 C-22.32 15.34 -23.64 14.68 -25 14 C-24.40985107 13.64695801 -23.81970215 13.29391602 -23.21166992 12.93017578 C-20.53648349 11.32922293 -17.86198485 9.72712458 -15.1875 8.125 C-14.25873047 7.56941406 -13.32996094 7.01382813 -12.37304688 6.44140625 C-11.48037109 5.90644531 -10.58769531 5.37148437 -9.66796875 4.8203125 C-8.84578857 4.32805176 -8.0236084 3.83579102 -7.17651367 3.32861328 C-1.72363102 0 -1.72363102 0 0 0 Z " fill="#FAE287" transform="translate(200,234)"/>
<path d="M0 0 C2.31 0.33 4.62 0.66 7 1 C5.48706722 4.02586555 3.01164016 4.55596621 0 6 C-2.11501414 7.16807054 -4.21938121 8.35563325 -6.3125 9.5625 C-7.36050781 10.16191406 -8.40851563 10.76132813 -9.48828125 11.37890625 C-12.09030552 12.75645669 -12.09030552 12.75645669 -13 15 C-13.99 14.67 -14.98 14.34 -16 14 C-15.67 13.01 -15.34 12.02 -15 11 C-13.35 10.67 -11.7 10.34 -10 10 C-10.33 9.01 -10.66 8.02 -11 7 C-7.33708062 4.52214277 -4.3890815 3.51035831 0 3 C0 2.01 0 1.02 0 0 Z " fill="#F9DE76" transform="translate(275,204)"/>
<path d="M0 0 C0 0.66 0 1.32 0 2 C-3.31114834 3.12880057 -6.58978257 4.21302675 -10 5 C-11.01111093 8.04913228 -11.01111093 8.04913228 -10 11 C-10.66 11 -11.32 11 -12 11 C-12.33 11.99 -12.66 12.98 -13 14 C-13.33 12.68 -13.66 11.36 -14 10 C-15.65 10 -17.3 10 -19 10 C-19 10.66 -19 11.32 -19 12 C-20.32 11.67 -21.64 11.34 -23 11 C-19.92496155 9.15247545 -16.83872116 7.3245421 -13.75 5.5 C-12.87730469 4.97535156 -12.00460938 4.45070312 -11.10546875 3.91015625 C-10.26113281 3.41386719 -9.41679687 2.91757813 -8.546875 2.40625 C-7.77182617 1.94541016 -6.99677734 1.48457031 -6.19824219 1.00976562 C-4 0 -4 0 0 0 Z " fill="#FBE283" transform="translate(223,222)"/>
<path d="M0 0 C3.34249629 0.59687434 5.46436342 1.73603877 8 4 C8 4.66 8 5.32 8 6 C8.5775 6.2475 9.155 6.495 9.75 6.75 C12.3002997 8.16683317 14.01785701 9.87627537 16 12 C12.7 11.34 9.4 10.68 6 10 C5.67 9.01 5.34 8.02 5 7 C4.34 7 3.68 7 3 7 C2.87625 6.030625 2.7525 5.06125 2.625 4.0625 C2.41875 3.051875 2.2125 2.04125 2 1 C1.34 0.67 0.68 0.34 0 0 Z " fill="#FBE38C" transform="translate(168,141)"/>
<path d="M0 0 C0 0.66 0 1.32 0 2 C-1.0725 2.598125 -2.145 3.19625 -3.25 3.8125 C-8.86253356 6.78685709 -8.86253356 6.78685709 -12 12 C-14.31 11.67 -16.62 11.34 -19 11 C-17.56904349 8.13808698 -15.56109874 7.53945428 -12.75 6.0625 C-9.86883929 4.54015698 -7.03751489 3.02320564 -4.265625 1.30859375 C-2 0 -2 0 0 0 Z " fill="#FAE080" transform="translate(353,146)"/>
<path d="M0 0 C1.32 0 2.64 0 4 0 C4.33 0.66 4.66 1.32 5 2 C7.01669827 3.13350534 7.01669827 3.13350534 9 4 C9 4.66 9 5.32 9 6 C10.98 6 12.96 6 15 6 C15.33 8.31 15.66 10.62 16 13 C14.68 12.34 13.36 11.68 12 11 C12 10.34 12 9.68 12 9 C11.42765625 8.73316406 10.8553125 8.46632812 10.265625 8.19140625 C7.90688039 6.95103193 5.876888 5.54054336 3.75 3.9375 C3.04359375 3.41027344 2.3371875 2.88304687 1.609375 2.33984375 C1.07828125 1.89769531 0.5471875 1.45554688 0 1 C0 0.67 0 0.34 0 0 Z " fill="#FAE486" transform="translate(271,246)"/>
<path d="M0 0 C0.33 0 0.66 0 1 0 C1.2358396 5.77807024 0.86783046 10.51324804 -1 16 C-1.66 16 -2.32 16 -3 16 C-3 17.32 -3 18.64 -3 20 C-3.66 20 -4.32 20 -5 20 C-4.35346673 13.04976736 -2.13972752 6.61822697 0 0 Z " fill="#FAE185" transform="translate(112,236)"/>
<path d="M0 0 C5.82665994 3.80351413 11.48221873 7.76017897 17 12 C16.67 12.66 16.34 13.32 16 14 C14.02 13.34 12.04 12.68 10 12 C10.33 11.01 10.66 10.02 11 9 C9.35 9 7.7 9 6 9 C6 7.68 6 6.36 6 5 C4.35 4.67 2.7 4.34 1 4 C0.67 2.68 0.34 1.36 0 0 Z " fill="#F9E587" transform="translate(262,219)"/>
<path d="M0 0 C0.99 0.33 1.98 0.66 3 1 C-12.98969072 12 -12.98969072 12 -17 12 C-17 11.01 -17 10.02 -17 9 C-15.35 9 -13.7 9 -12 9 C-12 8.01 -12 7.02 -12 6 C-10.5459375 5.566875 -10.5459375 5.566875 -9.0625 5.125 C-5.89335797 4.35785318 -5.89335797 4.35785318 -5 2 C-3.35 2 -1.7 2 0 2 C0 1.34 0 0.68 0 0 Z " fill="#FBE896" transform="translate(417,125)"/>
<path d="M0 0 C1.32026859 3.68611902 0.6716794 6.26851412 -0.3125 10 C-0.57675781 11.03125 -0.84101562 12.0625 -1.11328125 13.125 C-1.87821442 15.60513573 -2.75250363 17.73380572 -4 20 C-4.66 20 -5.32 20 -6 20 C-5.36757331 15.27497299 -4.08186437 11.09429803 -2.4375 6.625 C-2.20353516 5.98433594 -1.96957031 5.34367187 -1.72851562 4.68359375 C-1.15700381 3.1206839 -0.57915771 1.56009273 0 0 Z " fill="#F7E289" transform="translate(101,268)"/>
<path d="M0 0 C4.10110762 1.40398279 6.98089159 3.37087038 10.3125 6.125 C11.19550781 6.84945312 12.07851562 7.57390625 12.98828125 8.3203125 C13.65214844 8.87460938 14.31601563 9.42890625 15 10 C14.67 10.66 14.34 11.32 14 12 C10.4273228 10.33275064 7.71363699 8.8428578 5 6 C4.01 5.67 3.02 5.34 2 5 C0.8125 2.4375 0.8125 2.4375 0 0 Z " fill="#F9E587" transform="translate(217,182)"/>
<path d="M0 0 C-0.33 0.99 -0.66 1.98 -1 3 C-7.11111111 6 -7.11111111 6 -10 6 C-10.33 6.99 -10.66 7.98 -11 9 C-13.31 9.33 -15.62 9.66 -18 10 C-14.78112842 7.47310806 -11.40415973 5.38057026 -7.875 3.3125 C-6.82054687 2.68988281 -5.76609375 2.06726563 -4.6796875 1.42578125 C-2 0 -2 0 0 0 Z " fill="#F8E48B" transform="translate(138,270)"/>
<path d="M0 0 C0.66 0.33 1.32 0.66 2 1 C0.6875 2.5 0.6875 2.5 -1 4 C-1.99 4 -2.98 4 -4 4 C-4.66 5.32 -5.32 6.64 -6 8 C-6.99 8 -7.98 8 -9 8 C-9 8.66 -9 9.32 -9 10 C-10.98 10 -12.96 10 -15 10 C-12.49720383 7.15668734 -9.71102186 5.62663153 -6.375 3.875 C-2.97245617 2.24341581 -2.97245617 2.24341581 0 0 Z " fill="#FAE38D" transform="translate(169,251)"/>
<path d="M0 0 C-1 3 -1 3 -3.07421875 4.28125 C-3.93660156 4.6834375 -4.79898437 5.085625 -5.6875 5.5 C-7.03521484 6.14001953 -7.03521484 6.14001953 -8.41015625 6.79296875 C-9.69212891 7.39044922 -9.69212891 7.39044922 -11 8 C-12.2106933 8.5994235 -13.41957121 9.20255882 -14.625 9.8125 C-15.40875 10.204375 -16.1925 10.59625 -17 11 C-16.875 9.1875 -16.875 9.1875 -16 7 C-12.32115375 4.71094011 -10.38448044 4 -6 4 C-6 3.34 -6 2.68 -6 2 C-2.25 0 -2.25 0 0 0 Z " fill="#F7E697" transform="translate(331,176)"/>
<path d="M0 0 C-0.64544429 3.48539917 -2.10134397 6.02819057 -4 9 C-4.33 8.01 -4.66 7.02 -5 6 C-6.98 6.33 -8.96 6.66 -11 7 C-4.48275862 0 -4.48275862 0 0 0 Z " fill="#F9E189" transform="translate(445,92)"/>
<path d="M0 0 C0.33 0 0.66 0 1 0 C1.45374191 5.67177385 0.65083143 8.5975268 -3 13 C-3.66 13 -4.32 13 -5 13 C-4.48474397 7.71862571 -2.74522883 4.42778844 0 0 Z " fill="#FBDF7A" transform="translate(132,186)"/>
<path d="M0 0 C-2.25740623 2.33524782 -4.2805761 4.18705073 -7 6 C-7.99 5.67 -8.98 5.34 -10 5 C-9.34 4.67 -8.68 4.34 -8 4 C-8.66 3.67 -9.32 3.34 -10 3 C-10 2.34 -10 1.68 -10 1 C-6.1496895 -1.56687367 -4.41430237 -0.83288724 0 0 Z " fill="#FBE27C" transform="translate(156,277)"/>
<path d="M0 0 C0.556875 0.28875 1.11375 0.5775 1.6875 0.875 C4.01604463 2.07338209 4.01604463 2.07338209 6.6875 2.875 C7.450625 3.24625 8.21375 3.6175 9 4 C9.625 6.0625 9.625 6.0625 10 8 C10.99 8.33 11.98 8.66 13 9 C13 9.66 13 10.32 13 11 C13.66 11 14.32 11 15 11 C14.67 11.66 14.34 12.32 14 13 C13.01 12.34 12.02 11.68 11 11 C11 10.34 11 9.68 11 9 C10.12601563 8.59974609 10.12601563 8.59974609 9.234375 8.19140625 C6.95523863 6.97613248 5.19537168 5.62930828 3.25 3.9375 C2.63640625 3.41027344 2.0228125 2.88304687 1.390625 2.33984375 C0.93171875 1.89769531 0.4728125 1.45554688 0 1 C0 0.67 0 0.34 0 0 Z " fill="#F8E591" transform="translate(168,159)"/>
<path d="M0 0 C1.39935013 2.79870027 1.25265405 4.90498792 1 8 C-0.5 9.875 -0.5 9.875 -2 11 C-2 7.66666667 -2 4.33333333 -2 1 C-4.64 0.67 -7.28 0.34 -10 0 C-6.24527715 -2.59942351 -4.03404839 -1.7929104 0 0 Z " fill="#F5E491" transform="translate(361,192)"/>
<path d="M0 0 C3.14164535 0.73692916 6.10596396 1.55562735 9 3 C10.5625 6.1875 10.5625 6.1875 11 9 C8.05043472 7.63055898 5.47531189 6.12169591 3 4 C3 3.34 3 2.68 3 2 C2.01 1.67 1.02 1.34 0 1 C0 0.67 0 0.34 0 0 Z " fill="#FBE387" transform="translate(304,273)"/>
<path d="M0 0 C-1.95245185 1.19714555 -3.91214997 2.38248074 -5.875 3.5625 C-6.96554688 4.22378906 -8.05609375 4.88507813 -9.1796875 5.56640625 C-10.57574219 6.27603516 -10.57574219 6.27603516 -12 7 C-12.66 6.67 -13.32 6.34 -14 6 C-13.01 5.67 -12.02 5.34 -11 5 C-11 4.01 -11 3.02 -11 2 C-9.68 2 -8.36 2 -7 2 C-7 1.34 -7 0.68 -7 0 C-3.98968256 -0.93423645 -3.13349732 -1.04449911 0 0 Z " fill="#F9E68E" transform="translate(131,293)"/>
<path d="M0 0 C0.5625 1.9375 0.5625 1.9375 1 4 C0.67 4.33 0.34 4.66 0 5 C-0.1546875 6.7015625 -0.1546875 6.7015625 -0.3125 8.4375 C-0.539375 9.613125 -0.76625 10.78875 -1 12 C-3.04296875 13.22265625 -3.04296875 13.22265625 -5 14 C-4.54857225 12.22739369 -4.08859477 10.4569632 -3.625 8.6875 C-3.36976562 7.70136719 -3.11453125 6.71523437 -2.8515625 5.69921875 C-2 3 -2 3 0 0 Z " fill="#F6E38D" transform="translate(118,222)"/>
<path d="M0 0 C0.66 0.33 1.32 0.66 2 1 C0.5625 3.4375 0.5625 3.4375 -2 6 C-4.99304558 6.73151889 -7.92553213 6.92773687 -11 7 C-7.53252172 4.22601737 -3.93597489 2.04087587 0 0 Z " fill="#FBE08A" transform="translate(371,135)"/>
<path d="M0 0 C1.32 0.66 2.64 1.32 4 2 C4 2.66 4 3.32 4 4 C-3.425 3.01 -3.425 3.01 -11 2 C-11 1.67 -11 1.34 -11 1 C-9.741875 0.979375 -8.48375 0.95875 -7.1875 0.9375 C-6.47980469 0.92589844 -5.77210938 0.91429687 -5.04296875 0.90234375 C-3 1 -3 1 0 2 C0 1.34 0 0.68 0 0 Z " fill="#F6E69C" transform="translate(388,324)"/>
<path d="M0 0 C2.49361571 1.20381448 4.68143083 2.45428722 7 4 C7 4.66 7 5.32 7 6 C7.99 6.33 8.98 6.66 10 7 C9.01 7.33 8.02 7.66 7 8 C6.34 7.67 5.68 7.34 5 7 C5 6.34 5 5.68 5 5 C2.525 4.01 2.525 4.01 0 3 C0 2.01 0 1.02 0 0 Z " fill="#F9E692" transform="translate(364,304)"/>
<path d="M0 0 C-1.41328129 0.81837442 -2.83078346 1.62946219 -4.25 2.4375 C-5.43335938 3.11619141 -5.43335938 3.11619141 -6.640625 3.80859375 C-8.78833468 4.89311602 -10.65205061 5.53148716 -13 6 C-12.34 4.68 -11.68 3.36 -11 2 C-9.68 2 -8.36 2 -7 2 C-7 1.34 -7 0.68 -7 0 C-3.86650268 -1.04449911 -3.01031744 -0.93423645 0 0 Z " fill="#F9E28C" transform="translate(311,189)"/>
<path d="M0 0 C0.886875 0.825 1.77375 1.65 2.6875 2.5 C5.01307407 4.46099476 5.74787194 4.97259478 8.875 5.3125 C9.57625 5.209375 10.2775 5.10625 11 5 C11 5.66 11 6.32 11 7 C8.69 7.33 6.38 7.66 4 8 C1.84622436 5.37801226 0.59927826 3.35595828 0 0 Z " fill="#FAE58D" transform="translate(240,200)"/>
<path d="M0 0 C2.31 0.33 4.62 0.66 7 1 C5.47298956 4.05402088 3.04842088 4.65869481 0 6 C-0.99 6 -1.98 6 -3 6 C-2.505 5.38125 -2.01 4.7625 -1.5 4.125 C0.19222773 2.16119096 0.19222773 2.16119096 0 0 Z " fill="#FAE383" transform="translate(275,204)"/>
<path d="M0 0 C0.66 0.33 1.32 0.66 2 1 C1.54917531 2.46067199 1.08906463 3.91848032 0.625 5.375 C0.36976563 6.18710938 0.11453125 6.99921875 -0.1484375 7.8359375 C-1 10 -1 10 -3 12 C-2.67 8.7 -2.34 5.4 -2 2 C-1.34 2 -0.68 2 0 2 C0 1.34 0 0.68 0 0 Z " fill="#F8E38C" transform="translate(147,192)"/>
<path d="M0 0 C2.1875 -0.3125 2.1875 -0.3125 5 0 C7.8125 2.5 7.8125 2.5 10 5 C6.7 4.34 3.4 3.68 0 3 C0 2.01 0 1.02 0 0 Z " fill="#FAE076" transform="translate(174,148)"/>
<path d="M0 0 C1.25955231 3.77865693 0.48087189 5.03411786 -0.9375 8.6875 C-1.31777344 9.68136719 -1.69804687 10.67523438 -2.08984375 11.69921875 C-2.39019531 12.45847656 -2.69054687 13.21773437 -3 14 C-3.33 14 -3.66 14 -4 14 C-3.67 10.37 -3.34 6.74 -3 3 C-2.34 3 -1.68 3 -1 3 C-0.67 2.01 -0.34 1.02 0 0 Z " fill="#F6E58C" transform="translate(158,163)"/>
<path d="M0 0 C1.65 0 3.3 0 5 0 C2.19527484 3.29967665 -1.16918209 5.08459104 -5 7 C-5.99 6.67 -6.98 6.34 -8 6 C-6.20963542 5.0234375 -4.41927083 4.046875 -2.62890625 3.0703125 C-0.83381685 2.08589976 -0.83381685 2.08589976 0 0 Z " fill="#FAE99D" transform="translate(112,300)"/>
<path d="M0 0 C0.66 0 1.32 0 2 0 C1.71758359 1.46015291 1.42373386 2.91809793 1.125 4.375 C0.96257812 5.18710937 0.80015625 5.99921875 0.6328125 6.8359375 C0 9 0 9 -2 11 C-2.28571429 3.57142857 -2.28571429 3.57142857 0 0 Z " fill="#F9E58D" transform="translate(123,256)"/>
<path d="M0 0 C2.64 0.33 5.28 0.66 8 1 C5.47211993 3.79872437 3.79588866 5.45773019 0 6 C-0.33 5.34 -0.66 4.68 -1 4 C0.32 4 1.64 4 3 4 C3 3.34 3 2.68 3 2 C2.01 2 1.02 2 0 2 C0 1.34 0 0.68 0 0 Z " fill="#FBDE7B" transform="translate(290,194)"/>
<path d="M0 0 C3.61260785 0.30105065 4.74509577 0.70868088 7.1875 3.5 C8.0846875 4.7375 8.0846875 4.7375 9 6 C9.66 6.33 10.32 6.66 11 7 C10.67 7.66 10.34 8.32 10 9 C8.33043913 7.69118353 6.66441696 6.37785174 5 5.0625 C4.071875 4.33160156 3.14375 3.60070312 2.1875 2.84765625 C1.465625 2.23792969 0.74375 1.62820312 0 1 C0 0.67 0 0.34 0 0 Z " fill="#F8E795" transform="translate(183,172)"/>
<path d="M0 0 C0.66 0.33 1.32 0.66 2 1 C1.67 1.99 1.34 2.98 1 4 C-2.58611131 5.46704554 -6.1911316 6.32784675 -10 7 C-6.81404865 4.36021174 -3.69029454 1.89501612 0 0 Z " fill="#FBE597" transform="translate(332,157)"/>
<path d="M0 0 C2.97 0.33 5.94 0.66 9 1 C8.67 2.65 8.34 4.3 8 6 C4.63408134 4.55746343 2.48952921 2.66735273 0 0 Z " fill="#FBE388" transform="translate(251,229)"/>
<path d="M0 0 C0 0.66 0 1.32 0 2 C-6.45 6.09326923 -6.45 6.09326923 -9.234375 5.62109375 C-9.81703125 5.41613281 -10.3996875 5.21117187 -11 5 C-9.54462432 4.16151196 -8.08559627 3.32936066 -6.625 2.5 C-5.81289063 2.0359375 -5.00078125 1.571875 -4.1640625 1.09375 C-2 0 -2 0 0 0 Z " fill="#F9E392" transform="translate(353,146)"/>
<path d="M0 0 C0.66 0 1.32 0 2 0 C0 8.57142857 0 8.57142857 -2 12 C-2.66 12 -3.32 12 -4 12 C-4 11.01 -4 10.02 -4 9 C-3.34 9 -2.68 9 -2 9 C-1.34 6.03 -0.68 3.06 0 0 Z " fill="#FAE698" transform="translate(135,224)"/>
<path d="M0 0 C1.32 0.33 2.64 0.66 4 1 C-1.14285714 5.42857143 -1.14285714 5.42857143 -5 6 C-5 5.01 -5 4.02 -5 3 C-3.35 3 -1.7 3 0 3 C0 2.01 0 1.02 0 0 Z " fill="#FAE384" transform="translate(405,131)"/>
<path d="M0 0 C6.875 3.75 6.875 3.75 8 6 C5.69 5.67 3.38 5.34 1 5 C0.67 3.35 0.34 1.7 0 0 Z " fill="#F8E27F" transform="translate(379,317)"/>
<path d="M0 0 C1 2 1 2 0.22265625 4.3828125 C-0.16019531 5.28773438 -0.54304688 6.19265625 -0.9375 7.125 C-1.31777344 8.03507812 -1.69804688 8.94515625 -2.08984375 9.8828125 C-2.39019531 10.58148438 -2.69054687 11.28015625 -3 12 C-4.12668965 8.61993106 -3.89636912 8.0359269 -2.625 4.875 C-2.34914063 4.17117188 -2.07328125 3.46734375 -1.7890625 2.7421875 C-1 1 -1 1 0 0 Z " fill="#F6E48B" transform="translate(120,267)"/>
<path d="M0 0 C1.31611677 0.95336021 2.62778961 1.91285774 3.9375 2.875 C4.66839844 3.40867188 5.39929688 3.94234375 6.15234375 4.4921875 C8 6 8 6 9 8 C8.236875 7.690625 7.47375 7.38125 6.6875 7.0625 C4.81210323 6.32106407 2.91315348 5.63771783 1 5 C0.67 3.35 0.34 1.7 0 0 Z " fill="#F9E79A" transform="translate(290,242)"/>
<path d="M0 0 C2.475 0.99 2.475 0.99 5 2 C5 3.32 5 4.64 5 6 C4.01 5.67 3.02 5.34 2 5 C0.8125 2.4375 0.8125 2.4375 0 0 Z " fill="#F6E07A" transform="translate(217,182)"/>
<path d="M0 0 C3.53372712 1.96318174 6.24479785 4.04070881 9 7 C6.69 6.34 4.38 5.68 2 5 C2 4.01 2 3.02 2 2 C1.34 2 0.68 2 0 2 C0 1.34 0 0.68 0 0 Z " fill="#F9E48F" transform="translate(203,170)"/>
<path d="M0 0 C2.375 0.1875 2.375 0.1875 5 1 C6.3125 3.5625 6.3125 3.5625 7 6 C1.125 2.25 1.125 2.25 0 0 Z " fill="#FBE58B" transform="translate(353,314)"/>
<path d="M0 0 C0.99 0.495 0.99 0.495 2 1 C2 1.66 2 2.32 2 3 C3.32 3.33 4.64 3.66 6 4 C6 4.66 6 5.32 6 6 C3.03 5.505 3.03 5.505 0 5 C0 3.35 0 1.7 0 0 Z " fill="#FAE58F" transform="translate(321,267)"/>
<path d="M0 0 C-2.31 1.32 -4.62 2.64 -7 4 C-7.33 3.34 -7.66 2.68 -8 2 C-7 0 -7 0 -5.125 -0.6875 C-3 -1 -3 -1 0 0 Z " fill="#FAE588" transform="translate(195,256)"/>
<path d="M0 0 C3.24208567 0.35049575 4.61527704 0.56221181 6.8125 3.0625 C7.204375 3.701875 7.59625 4.34125 8 5 C7.67 5.66 7.34 6.32 7 7 C5.83040013 6.02433888 4.66438823 5.044375 3.5 4.0625 C2.8503125 3.51722656 2.200625 2.97195312 1.53125 2.41015625 C1.0259375 1.94480469 0.520625 1.47945312 0 1 C0 0.67 0 0.34 0 0 Z " fill="#FAE596" transform="translate(207,192)"/>
<path d="M0 0 C0.66 1.32 1.32 2.64 2 4 C0.68 4.33 -0.64 4.66 -2 5 C-2 4.34 -2 3.68 -2 3 C-2.66 3 -3.32 3 -4 3 C-4 2.34 -4 1.68 -4 1 C-2.68 0.67 -1.36 0.34 0 0 Z " fill="#FBDD6C" transform="translate(312,183)"/>
<path d="M0 0 C2.66666667 1.33333333 5.33333333 2.66666667 8 4 C7.67 4.99 7.34 5.98 7 7 C5.83040013 6.02433888 4.66438823 5.044375 3.5 4.0625 C2.8503125 3.51722656 2.200625 2.97195313 1.53125 2.41015625 C1.0259375 1.94480469 0.520625 1.47945313 0 1 C0 0.67 0 0.34 0 0 Z " fill="#FBE597" transform="translate(315,282)"/>
<path d="M0 0 C0.99 0.33 1.98 0.66 3 1 C-2.75 5 -2.75 5 -5 5 C-4.67 3.68 -4.34 2.36 -4 1 C-2.02 1.495 -2.02 1.495 0 2 C0 1.34 0 0.68 0 0 Z " fill="#FAE58B" transform="translate(161,272)"/>
<path d="M0 0 C1.65 0 3.3 0 5 0 C3.6875 2 3.6875 2 2 4 C1.01 4 0.02 4 -1 4 C-0.67 2.68 -0.34 1.36 0 0 Z " fill="#F9E28A" transform="translate(237,227)"/>
<path d="M0 0 C1.32 0.33 2.64 0.66 4 1 C4 1.99 4 2.98 4 4 C1.69 4.33 -0.62 4.66 -3 5 C-2.505 4.360625 -2.01 3.72125 -1.5 3.0625 C0.09802862 1.29025661 0.09802862 1.29025661 0 0 Z " fill="#FBE18A" transform="translate(232,213)"/>
<path d="M0 0 C0.66 0.33 1.32 0.66 2 1 C-0.25 3.0625 -0.25 3.0625 -3 5 C-5.3125 4.75 -5.3125 4.75 -7 4 C-1.7265625 0.77734375 -1.7265625 0.77734375 0 0 Z " fill="#F7E8A0" transform="translate(381,129)"/>
<path d="M0 0 C-0.62759865 2.92879371 -1.58622659 5.36095629 -3 8 C-3.33 7.34 -3.66 6.68 -4 6 C-3.67 5.01 -3.34 4.02 -3 3 C-3.66 2.67 -4.32 2.34 -5 2 C-2 0 -2 0 0 0 Z " fill="#F8EDB4" transform="translate(445,92)"/>
</svg>
